<?xml version="1.0" encoding="UTF-8"?>
<svg width="136" height="12" viewBox="0 0 136 12" xmlns="http://www.w3.org/2000/svg">
  <path d="M135.078 4.096l-1.001 1.734a4.66 4.66 0 0 0-5.196.712l-.174.165a6.657 6.657 0 0 1-9.226.181l-.188-.18a4.657 4.657 0 0 0-6.412-.166l-.174.165a6.657 6.657 0 0 1-9.226.181l-.188-.18a4.657 4.657 0 0 0-6.412-.166l-.192.183.018-.018a6.657 6.657 0 0 1-9.226.181l-.188-.18a4.657 4.657 0 0 0-6.412-.166l-.174.165a6.657 6.657 0 0 1-9.226.181l-.188-.18a4.657 4.657 0 0 0-6.412-.166l-.174.165a6.657 6.657 0 0 1-9.226.181l-.188-.18a4.657 4.657 0 0 0-6.412-.166l-.192.183.018-.018a6.657 6.657 0 0 1-9.226.181l-.188-.18a4.657 4.657 0 0 0-6.412-.166l-.174.165a6.657 6.657 0 0 1-9.226.181l-.188-.18a4.657 4.657 0 0 0-6.412-.166l-.174.165a6.657 6.657 0 0 1-9.226.181l-.188-.18a4.659 4.659 0 0 0-5.37-.878L.923 4.096a6.66 6.66 0 0 1 7.597 1.016l.188.18a4.657 4.657 0 0 0 6.412.166l.174-.165a6.657 6.657 0 0 1 9.226-.181l.188.18a4.657 4.657 0 0 0 6.412.166l.174-.165a6.657 6.657 0 0 1 9.226-.181l.188.18a4.657 4.657 0 0 0 6.412.166l.164-.157.01-.008a6.657 6.657 0 0 1 9.226-.181l.188.18a4.657 4.657 0 0 0 6.412.166l.174-.165a6.657 6.657 0 0 1 9.226-.181l.188.18a4.657 4.657 0 0 0 6.412.166l.174-.165a6.657 6.657 0 0 1 9.226-.181l.188.18a4.657 4.657 0 0 0 6.412.166l.164-.157.01-.008a6.657 6.657 0 0 1 9.226-.181l.188.18a4.657 4.657 0 0 0 6.412.166l.174-.165a6.657 6.657 0 0 1 9.226-.181l.188.18a4.657 4.657 0 0 0 6.412.166l.174-.165a6.66 6.66 0 0 1 7.785-1.197z" fill="#A0AABC" fill-rule="nonzero"/>
</svg>
