<?xml version="1.0" encoding="UTF-8"?>
<svg width="24px" height="24px" viewBox="0 0 24 24" version="1.1" xmlns="http://www.w3.org/2000/svg" xmlns:xlink="http://www.w3.org/1999/xlink">
    <title>Slice</title>
    <g id="模板配置" stroke="none" stroke-width="1" fill="none" fill-rule="evenodd">
        <g id="选择多边形" transform="translate(-700.000000, -316.000000)" fill="#7A869A" fill-rule="nonzero">
            <g id="tools-copy-2" transform="translate(696.000000, 314.000000)">
                <g id="rectangle" transform="translate(4.000000, 2.000000)">
                    <path d="M11.5,4 C16.1499965,4 20.0196949,6.81335034 20.8397521,10.5290253 L20.9384623,10.5482115 C21.8321273,10.7480973 22.5,11.5460536 22.5,12.5 C22.5,13.6045695 21.6045695,14.5 20.5,14.5 L20.5,14.5 L20.5269214,14.5000104 C19.480652,17.1805982 16.7975933,19.2357885 13.4733499,19.8271775 L13.4758529,19.8117104 C13.3261592,20.7682316 12.4985364,21.5 11.5,21.5 C10.5460536,21.5 9.74809727,20.8321273 9.54821148,19.9384623 L9.52657222,19.8268264 L9.52657222,19.8268264 C5.22729323,19.0625616 2,15.8486596 2,12 C2,7.581722 6.25329488,4 11.5,4 Z M11.5,18.5 C10.9477153,18.5 10.5,18.9477153 10.5,19.5 C10.5,20.0522847 10.9477153,20.5 11.5,20.5 C12.0522847,20.5 12.5,20.0522847 12.5,19.5 C12.5,18.9477153 12.0522847,18.5 11.5,18.5 Z M11.5,5 C6.7711686,5 3,8.17572093 3,12 C3,15.2999162 5.80790633,18.1169342 9.61609618,18.827401 C9.83750784,18.2072423 10.355975,17.7287762 10.9999808,17.5630137 L11,17 L12,17 L12.0010222,17.5632721 C12.6559211,17.7322028 13.180854,18.2245441 13.3953497,18.8598249 L13.3835552,18.8259082 L13.3835552,18.8259082 C16.2827474,18.2868687 18.6026746,16.5247763 19.5447813,14.2580577 L19.5858925,14.2793504 C19.0849667,14.0214899 18.7070246,13.5583119 18.5632721,13.0010222 L17,13 L17,12 L18.5630137,11.9999808 C18.7324977,11.3415166 19.2288838,10.8142911 19.8688489,10.6016275 L19.8308785,10.6146733 L19.8308785,10.6146733 C19.0523153,7.43861018 15.6438484,5 11.5,5 Z M11.5,10.5 C12.4319128,10.5 13.2149582,11.1373769 13.4369863,11.9999808 L15,12 L15,13 L13.4367279,13.0010222 C13.2556534,13.7029994 12.7029994,14.2556534 12.0010222,14.4367279 L12,15 L11,15 L10.9999808,14.4369863 C10.1373769,14.2149582 9.5,13.4319128 9.5,12.5 C9.5,11.3954305 10.3954305,10.5 11.5,10.5 Z M11.5,11.5 C10.9477153,11.5 10.5,11.9477153 10.5,12.5 C10.5,13.0522847 10.9477153,13.5 11.5,13.5 C12.0522847,13.5 12.5,13.0522847 12.5,12.5 C12.5,11.9477153 12.0522847,11.5 11.5,11.5 Z M20.5,11.5 C19.9477153,11.5 19.5,11.9477153 19.5,12.5 C19.5,13.0522847 19.9477153,13.5 20.5,13.5 C21.0522847,13.5 21.5,13.0522847 21.5,12.5 C21.5,11.9477153 21.0522847,11.5 20.5,11.5 Z" id="Combined-Shape"></path>
                </g>
            </g>
        </g>
    </g>
</svg>