<?xml version="1.0" encoding="UTF-8"?>
<svg width="24px" height="24px" viewBox="0 0 24 24" version="1.1" xmlns="http://www.w3.org/2000/svg" xmlns:xlink="http://www.w3.org/1999/xlink">
    <title>Slice</title>
    <g id="模板配置" stroke="none" stroke-width="1" fill="none" fill-rule="evenodd">
        <g id="选择多边形" transform="translate(-732.000000, -276.000000)" fill="#7A869A" fill-rule="nonzero">
            <g id="tools-copy-11" transform="translate(728.000000, 274.000000)">
                <g id="rectangle" transform="translate(4.000000, 2.000000)">
                    <path d="M12,16.5 C13.1045695,16.5 14,17.3954305 14,18.5 C14,19.6045695 13.1045695,20.5 12,20.5 C10.8954305,20.5 10,19.6045695 10,18.5 C10,17.3954305 10.8954305,16.5 12,16.5 Z M12,17.5 C11.4477153,17.5 11,17.9477153 11,18.5 C11,19.0522847 11.4477153,19.5 12,19.5 C12.5522847,19.5 13,19.0522847 13,18.5 C13,17.9477153 12.5522847,17.5 12,17.5 Z M3.5,10 C4.6045695,10 5.5,10.8954305 5.5,12 C5.5,13.1045695 4.6045695,14 3.5,14 C2.3954305,14 1.5,13.1045695 1.5,12 C1.5,10.8954305 2.3954305,10 3.5,10 Z M20.5,10 C21.6045695,10 22.5,10.8954305 22.5,12 C22.5,13.1045695 21.6045695,14 20.5,14 C19.3954305,14 18.5,13.1045695 18.5,12 C18.5,10.8954305 19.3954305,10 20.5,10 Z M3.5,11 C2.94771525,11 2.5,11.4477153 2.5,12 C2.5,12.5522847 2.94771525,13 3.5,13 C4.05228475,13 4.5,12.5522847 4.5,12 C4.5,11.4477153 4.05228475,11 3.5,11 Z M20.5,11 C19.9477153,11 19.5,11.4477153 19.5,12 C19.5,12.5522847 19.9477153,13 20.5,13 C21.0522847,13 21.5,12.5522847 21.5,12 C21.5,11.4477153 21.0522847,11 20.5,11 Z M12,3.5 C13.1045695,3.5 14,4.3954305 14,5.5 C14,6.6045695 13.1045695,7.5 12,7.5 C10.8954305,7.5 10,6.6045695 10,5.5 C10,4.3954305 10.8954305,3.5 12,3.5 Z M12,4.5 C11.4477153,4.5 11,4.94771525 11,5.5 C11,6.05228475 11.4477153,6.5 12,6.5 C12.5522847,6.5 13,6.05228475 13,5.5 C13,4.94771525 12.5522847,4.5 12,4.5 Z M11.5,7 L12.5,7 L12.5,9 L11.5,9 L11.5,7 Z M11.5,15 L12.5,15 L12.5,17 L11.5,17 L11.5,15 Z M4,13 L4,18 L11,18 L11,19 L3,19 L3,13 L4,13 Z M21,13 L21,19 L13,19 L13,18 L20,18 L20,13 L21,13 Z M12.5,10.5 L12.5,13.5 L11.5,13.5 L11.5,10.5 L12.5,10.5 Z M11,5 L11,6 L4,6 L4,11 L3,11 L3,5 L11,5 Z M21,5 L21,11 L20,11 L20,6 L13,6 L13,5 L21,5 Z" id="Shape"></path>
                </g>
            </g>
        </g>
    </g>
</svg>