<?xml version="1.0" encoding="UTF-8"?>
<svg width="24px" height="24px" viewBox="0 0 24 24" version="1.1" xmlns="http://www.w3.org/2000/svg" xmlns:xlink="http://www.w3.org/1999/xlink">
    <title>Slice</title>
    <g id="模板配置" stroke="none" stroke-width="1" fill="none" fill-rule="evenodd">
        <g id="选择多边形" transform="translate(-704.000000, -356.000000)" fill="#7A869A" fill-rule="nonzero">
            <g id="tools-copy-8" transform="translate(700.000000, 354.000000)">
                <g id="rectangle" transform="translate(4.000000, 2.000000)">
                    <path d="M15.5,4 L21.7345346,6.40519091 C21.8671989,6.45257103 21.963107,6.56518659 21.9913913,6.69923622 L22,6.78188768 L22,16.2527864 C22,16.3790438 21.9405549,16.4962708 21.8423176,16.5710505 L21.7788854,16.6105573 L15.5,20 L2.4,20 C2.1790861,20 2,19.8209139 2,19.6 L2,4.4 C2,4.1790861 2.1790861,4 2.4,4 L15.5,4 Z M9,17 L9,19 L15,19 L15,5 L9,5 L9,7 L8,7 L8,5 L3,5 L3,19 L8,19 L8,17 L9,17 Z M16,5.418 L16,18.382 L21,15.882 L21,7.204 L16,5.418 Z M9,9 L9,11 L8,11 L8,9 L9,9 Z M8,13 L9,13 L9,15 L8,15 L8,13 Z" id="Shape"></path>
                </g>
            </g>
        </g>
    </g>
</svg>