<?xml version="1.0" encoding="UTF-8"?>
<svg width="24px" height="24px" viewBox="0 0 24 24" version="1.1" xmlns="http://www.w3.org/2000/svg" xmlns:xlink="http://www.w3.org/1999/xlink">
    <title>Slice</title>
    <g id="模板配置" stroke="none" stroke-width="1" fill="none" fill-rule="evenodd">
        <g id="选择多边形" transform="translate(-554.000000, -316.000000)" fill="#7A869A" fill-rule="nonzero">
            <g id="tools-copy-4" transform="translate(550.000000, 314.000000)">
                <g id="rectangle" transform="translate(4.000000, 2.000000)">
                    <path d="M18,4 C19.1045695,4 20,4.8954305 20,6 C20,7.1045695 19.1045695,8 18,8 C17.6290439,8 17.281676,7.89900711 16.9838916,7.72301675 L7.72301675,16.9838916 C7.89900711,17.281676 8,17.6290439 8,18 C8,19.1045695 7.1045695,20 6,20 C4.8954305,20 4,19.1045695 4,18 C4,16.8954305 4.8954305,16 6,16 C6.3709561,16 6.71832404,16.1009929 7.0161084,16.2769833 L16.2769833,7.0161084 C16.1009929,6.71832404 16,6.3709561 16,6 C16,4.8954305 16.8954305,4 18,4 Z M6,17 C5.44771525,17 5,17.4477153 5,18 C5,18.5522847 5.44771525,19 6,19 C6.55228475,19 7,18.5522847 7,18 C7,17.4477153 6.55228475,17 6,17 Z M18,5 C17.4477153,5 17,5.44771525 17,6 C17,6.55228475 17.4477153,7 18,7 C18.5522847,7 19,6.55228475 19,6 C19,5.44771525 18.5522847,5 18,5 Z" id="Combined-Shape"></path>
                </g>
            </g>
        </g>
    </g>
</svg>