<?xml version="1.0" encoding="UTF-8"?>
<svg width="24px" height="24px" viewBox="0 0 24 24" version="1.1" xmlns="http://www.w3.org/2000/svg" xmlns:xlink="http://www.w3.org/1999/xlink">
    <title>Slice</title>
    <g id="模板配置" stroke="none" stroke-width="1" fill="none" fill-rule="evenodd">
        <g id="选择多边形" transform="translate(-636.000000, -476.000000)" fill="#7A869A" fill-rule="nonzero">
            <g id="tools-copy-10" transform="translate(632.000000, 474.000000)">
                <g id="rectangle" transform="translate(4.000000, 2.000000)">
                    <path d="M16,3 C17.1045695,3 18,3.8954305 18,5 C18,5.71120666 17.6287748,6.33570903 17.0695209,6.69031073 L19.8833332,17.0033461 C19.9219389,17.0011256 19.960838,17 20,17 C21.1045695,17 22,17.8954305 22,19 C22,20.1045695 21.1045695,21 20,21 C19.2601625,21 18.6141507,20.5982846 18.2681881,20.0010775 L5.73181186,20.0010775 C5.38584934,20.5982846 4.7398375,21 4,21 C2.8954305,21 2,20.1045695 2,19 C2,17.8954305 2.8954305,17 4,17 L4.116,17.004 L6.93047912,6.69031073 C6.37122517,6.33570903 6,5.71120666 6,5 C6,3.8954305 6.8954305,3 8,3 C8.74025244,3 9.38657394,3.40216612 9.73239368,3.99992752 L14.2676063,3.99992752 C14.6134261,3.40216612 15.2597476,3 16,3 Z M4,18 C3.44771525,18 3,18.4477153 3,19 C3,19.5522847 3.44771525,20 4,20 C4.55228475,20 5,19.5522847 5,19 C5,18.4477153 4.55228475,18 4,18 Z M20,18 C19.4477153,18 19,18.4477153 19,19 C19,19.5522847 19.4477153,20 20,20 C20.5522847,20 21,19.5522847 21,19 C21,18.4477153 20.5522847,18 20,18 Z M14,5 L10,5 C10,6.1045695 9.1045695,7 8,7 L7.883,6.995 L5.06952088,17.3096893 C5.62877483,17.664291 6,18.2887933 6,19 L18,19 C18,18.2887933 18.3712252,17.664291 18.9304791,17.3096893 L16.1164475,6.99666645 C16.0779139,6.99887868 16.0390879,7 16,7 C14.8954305,7 14,6.1045695 14,5 Z M12.7835052,8 L16,16.4123711 L14.5272459,16.4123711 L13.7614138,14.3033873 L10.2385862,14.3033873 L9.47275405,16.4123711 L8,16.4123711 L11.2164948,8 L12.7835052,8 Z M12.0294551,9.48453608 L11.982327,9.48453608 L10.6509573,13.1723122 L13.3490427,13.1723122 L12.0294551,9.48453608 Z M8,4 C7.44771525,4 7,4.44771525 7,5 C7,5.55228475 7.44771525,6 8,6 C8.55228475,6 9,5.55228475 9,5 C9,4.44771525 8.55228475,4 8,4 Z M16,4 C15.4477153,4 15,4.44771525 15,5 C15,5.55228475 15.4477153,6 16,6 C16.5522847,6 17,5.55228475 17,5 C17,4.44771525 16.5522847,4 16,4 Z" id="Combined-Shape"></path>
                </g>
            </g>
        </g>
    </g>
</svg>