<?xml version="1.0" encoding="UTF-8"?>
<svg width="24px" height="24px" viewBox="0 0 24 24" version="1.1" xmlns="http://www.w3.org/2000/svg" xmlns:xlink="http://www.w3.org/1999/xlink">
    <title>Slice</title>
    <g id="模板配置" stroke="none" stroke-width="1" fill="none" fill-rule="evenodd">
        <g id="选择多边形" transform="translate(-488.000000, -476.000000)" fill="#7A869A" fill-rule="nonzero">
            <g id="tools-copy-9" transform="translate(484.000000, 474.000000)">
                <g id="rectangle" transform="translate(4.000000, 2.000000)">
                    <path d="M19.5,2.5 C20.6045695,2.5 21.5,3.3954305 21.5,4.5 C21.5,5.43155158 20.8631171,6.21435119 20.0010222,6.43672788 L20.0010222,17.5632721 C20.8631171,17.7856488 21.5,18.5684484 21.5,19.5 C21.5,20.6045695 20.6045695,21.5 19.5,21.5 C18.5684484,21.5 17.7856488,20.8631171 17.5632721,20.0010222 L6.43672788,20.0010222 C6.21435119,20.8631171 5.43155158,21.5 4.5,21.5 C3.3954305,21.5 2.5,20.6045695 2.5,19.5 C2.5,18.5680872 3.13737692,17.7850418 3.99998077,17.5630137 L3.99998077,6.43698631 C3.13737692,6.21495822 2.5,5.43191279 2.5,4.5 C2.5,3.3954305 3.3954305,2.5 4.5,2.5 C5.43191279,2.5 6.21495822,3.13737692 6.43698631,3.99998077 L17.5630137,3.99998077 C17.7850418,3.13737692 18.5680872,2.5 19.5,2.5 Z M4.5,18.5 C3.94771525,18.5 3.5,18.9477153 3.5,19.5 C3.5,20.0522847 3.94771525,20.5 4.5,20.5 C5.05228475,20.5 5.5,20.0522847 5.5,19.5 C5.5,18.9477153 5.05228475,18.5 4.5,18.5 Z M19.5,18.5 C18.9477153,18.5 18.5,18.9477153 18.5,19.5 C18.5,20.0522847 18.9477153,20.5 19.5,20.5 C20.0522847,20.5 20.5,20.0522847 20.5,19.5 C20.5,18.9477153 20.0522847,18.5 19.5,18.5 Z M17.5632721,5.00102216 L6.43672788,5.00102216 C6.25565341,5.70299941 5.70299941,6.25565341 5.00102216,6.43672788 L5.00102216,17.5632721 C5.70333368,17.7444328 6.25617972,18.297527 6.43698631,18.9999808 L17.5630137,18.9999808 C17.7439063,18.2971927 18.2971927,17.7439063 18.9999808,17.5630137 L18.9999808,6.43698631 C18.297527,6.25617972 17.7444328,5.70333368 17.5632721,5.00102216 Z M12.7835052,7.8 L16,16.2123711 L14.5272459,16.2123711 L13.7614138,14.1033873 L10.2385862,14.1033873 L9.47275405,16.2123711 L8,16.2123711 L11.2164948,7.8 L12.7835052,7.8 Z M12.0294551,9.28453608 L11.982327,9.28453608 L10.6509573,12.9723122 L13.3490427,12.9723122 L12.0294551,9.28453608 Z M4.5,3.5 C3.94771525,3.5 3.5,3.94771525 3.5,4.5 C3.5,5.05228475 3.94771525,5.5 4.5,5.5 C5.05228475,5.5 5.5,5.05228475 5.5,4.5 C5.5,3.94771525 5.05228475,3.5 4.5,3.5 Z M19.5,3.5 C18.9477153,3.5 18.5,3.94771525 18.5,4.5 C18.5,5.05228475 18.9477153,5.5 19.5,5.5 C20.0522847,5.5 20.5,5.05228475 20.5,4.5 C20.5,3.94771525 20.0522847,3.5 19.5,3.5 Z" id="Combined-Shape"></path>
                </g>
            </g>
        </g>
    </g>
</svg>