<?xml version="1.0" encoding="UTF-8"?>
<svg width="24px" height="24px" viewBox="0 0 24 24" version="1.1" xmlns="http://www.w3.org/2000/svg" xmlns:xlink="http://www.w3.org/1999/xlink">
    <title>Slice</title>
    <g id="模板配置" stroke="none" stroke-width="1" fill="none" fill-rule="evenodd">
        <g id="选择多边形" transform="translate(-596.000000, -396.000000)">
            <g id="rectangle" transform="translate(592.000000, 394.000000)">
                <g transform="translate(4.000000, 2.000000)">
                    <path d="M13,2 C14.1045695,2 15,2.8954305 15,4 C15,4.41839754 14.8715234,4.80678776 14.6518692,5.12787169 L19.1009647,10.2129717 C19.3712457,10.0767288 19.6766624,10 20,10 C21.1045695,10 22,10.8954305 22,12 C22,13.1045695 21.1045695,14 20,14 L19.933,13.997 L18.7177175,18.1326387 C19.4677299,18.421089 20,19.1483853 20,20 C20,21.1045695 19.1045695,22 18,22 C17.2601625,22 16.6141507,21.5982846 16.2681881,21.0010775 L7.73181186,21.0010775 C7.38584934,21.5982846 6.7398375,22 6,22 C4.8954305,22 4,21.1045695 4,20 C4,19.2614073 4.40036471,18.6163248 4.99590965,18.269937 L3.78522071,9.98860232 C2.78165084,9.88145376 2,9.03200905 2,8 C2,6.8954305 2.8954305,6 4,6 C4.63473593,6 5.20041051,6.29568682 5.56679442,6.75683114 L11.0270708,4.32984507 C11.0092643,4.22254201 11,4.11235291 11,4 C11,2.8954305 11.8954305,2 13,2 Z M6,19 C5.44771525,19 5,19.4477153 5,20 C5,20.5522847 5.44771525,21 6,21 C6.55228475,21 7,20.5522847 7,20 C7,19.4477153 6.55228475,19 6,19 Z M18,19 C17.4477153,19 17,19.4477153 17,20 C17,20.5522847 17.4477153,21 18,21 C18.5522847,21 19,20.5522847 19,20 C19,19.4477153 18.5522847,19 18,19 Z M11.4340035,5.24417254 L5.97292923,7.67015493 C5.99073566,7.77745799 6,7.88764709 6,8 C6,8.82976855 5.49468786,9.54151513 4.77500154,9.84430177 L5.96792669,18.000252 L6,18 C7.1045695,18 8,18.8954305 8,20 L16,20 C16,18.9948142 16.7415466,18.162826 17.7074279,18.021247 L18.9739175,13.7170829 C18.3905292,13.367715 18,12.729464 18,12 C18,11.5816025 18.1284766,11.1932122 18.3481308,10.8721283 L13.8990353,5.78702833 C13.6287543,5.92327123 13.3233376,6 13,6 C12.4233861,6 11.9037649,5.75598527 11.5387667,5.36558617 L11.4340035,5.24417254 Z M20,11 C19.4477153,11 19,11.4477153 19,12 C19,12.5522847 19.4477153,13 20,13 C20.5522847,13 21,12.5522847 21,12 C21,11.4477153 20.5522847,11 20,11 Z M4,7 C3.44771525,7 3,7.44771525 3,8 C3,8.55228475 3.44771525,9 4,9 C4.55228475,9 5,8.55228475 5,8 C5,7.44771525 4.55228475,7 4,7 Z M13,3 C12.4477153,3 12,3.44771525 12,4 C12,4.55228475 12.4477153,5 13,5 C13.5522847,5 14,4.55228475 14,4 C14,3.44771525 13.5522847,3 13,3 Z" id="Shape" fill="#7A869A" fill-rule="nonzero"></path>
                </g>
            </g>
        </g>
    </g>
</svg>
