<?xml version="1.0" encoding="UTF-8"?>
<svg width="24px" height="24px" viewBox="0 0 24 24" version="1.1" xmlns="http://www.w3.org/2000/svg" xmlns:xlink="http://www.w3.org/1999/xlink">
    <title>Slice</title>
    <g id="模板配置" stroke="none" stroke-width="1" fill="none" fill-rule="evenodd">
        <g id="选择多边形" transform="translate(-488.000000, -396.000000)" fill="#7A869A" fill-rule="nonzero">
            <g id="tools-copy-14" transform="translate(484.000000, 394.000000)">
                <g id="rectangle" transform="translate(4.000000, 2.000000)">
                    <path d="M13.7122114,13.7122775 L21.3533348,16.2593187 C21.4581235,16.2942482 21.5147555,16.4075122 21.4798259,16.5123009 C21.4628308,16.5632862 21.4260313,16.6052862 21.3777217,16.6288345 L18.1112805,18.2210449 C18.071485,18.240443 18.0392505,18.2724969 18.0196291,18.3121828 L16.376526,21.6354842 C16.3275707,21.7345 16.2076165,21.775082 16.1086008,21.7261268 C16.0607737,21.7024801 16.0243773,21.660704 16.0075054,21.6100884 L13.4592292,13.9652598 C13.4242997,13.8604711 13.4809317,13.7472071 13.5857203,13.7122775 C13.6267737,13.6985931 13.6711581,13.6985931 13.7122114,13.7122775 Z M12,3 C16.8818027,3 20.8557914,6.88681368 20.9961629,11.7346377 L21,12 L20,12 C20,7.581722 16.418278,4 12,4 C7.581722,4 4,7.581722 4,12 C4,16.3349143 7.44783777,19.8645429 11.7508207,19.9961932 L12,20 L12,21 C7.02943725,21 3,16.9705627 3,12 C3,7.02943725 7.02943725,3 12,3 Z M14.913561,15.166843 L16.3412096,19.4497888 L17.3048076,17.5016802 L19.178122,16.5888348 L14.913561,15.166843 Z M12,8 C14.1421954,8 15.8910789,9.68396847 15.9951047,11.8003597 L16,12 L15,12 C15,10.3431458 13.6568542,9 12,9 C10.3431458,9 9,10.3431458 9,12 C9,13.5976809 10.24892,14.9036609 11.8237272,14.9949073 L12,15 L12,16 C9.790861,16 8,14.209139 8,12 C8,9.790861 9.790861,8 12,8 Z" id="Combined-Shape"></path>
                </g>
            </g>
        </g>
    </g>
</svg>