<?xml version="1.0" encoding="UTF-8"?>
<svg width="24px" height="24px" viewBox="0 0 24 24" version="1.1" xmlns="http://www.w3.org/2000/svg" xmlns:xlink="http://www.w3.org/1999/xlink">
    <title>Slice</title>
    <g id="模板配置" stroke="none" stroke-width="1" fill="none" fill-rule="evenodd">
        <g id="选择多边形" transform="translate(-488.000000, -356.000000)" fill="#7A869A" fill-rule="nonzero">
            <g id="tools-copy-7" transform="translate(484.000000, 354.000000)">
                <g id="rectangle" transform="translate(4.000000, 2.000000)">
                    <path d="M16,16 L16,18 L18,18 L18,19 L16,19 L16,21 L15,21 L15,19 L13,19 L13,18 L15,18 L15,16 L16,16 Z M16,9 L16,13 L19,13 L19,5 L8,5 L8,9 L16,9 Z M15,14 L15,10 L4,10 L4,18 L11,18 L11,19 L3,19 L3,9 L7,9 L7,4 L20,4 L20,14 L15,14 Z" id="Combined-Shape"></path>
                </g>
            </g>
        </g>
    </g>
</svg>