<?xml version="1.0" encoding="UTF-8"?>
<svg width="56px" height="56px" viewBox="0 0 56 56" version="1.1" xmlns="http://www.w3.org/2000/svg" xmlns:xlink="http://www.w3.org/1999/xlink">
  <g id="icon/data/服务商任务" stroke="none" stroke-width="1" fill="none" fill-rule="evenodd">
    <path d="M28.5,14.2411348 C28.9659188,14.2411348 29.34375,13.8471708 29.34375,13.3613582 L29.34375,8.87977654 C29.34375,8.39396393 28.9660031,8 28.5,8 C28.0339969,8 27.65625,8.39387596 27.65625,8.87977654 L27.65625,13.3613582 C27.6563344,13.8471708 28.0340812,14.2411348 28.5,14.2411348 Z" id="路径" fill="#848899" fill-rule="nonzero"></path>
    <path d="M21.7679085,15.801583 C21.9398423,16.0764455 22.2335137,16.2269504 22.5338779,16.2269504 C22.6986667,16.2269504 22.8655357,16.1815803 23.0152204,16.0865582 C23.4377743,15.8183462 23.5643958,15.2557753 23.2981289,14.8300434 L20.8883415,10.9785963 C20.6219842,10.5529556 20.0634931,10.425318 19.6410296,10.6936211 C19.2184757,10.961833 19.0918542,11.524404 19.3581211,11.9501358 L21.7679085,15.801583 Z" id="路径" fill="#848899" fill-rule="nonzero"></path>
    <path d="M33.985418,16.0868297 C34.1351896,16.1816708 34.3019745,16.2269504 34.4666779,16.2269504 C34.767307,16.2269504 35.0613299,16.0762614 35.2333636,15.8012132 L37.6420163,11.9497175 C37.9082568,11.5238892 37.78125,10.9614934 37.35831,10.693278 C36.9351488,10.425336 36.3766954,10.5532485 36.1103644,10.9788946 L33.7017117,14.8303903 C33.4354712,15.2563097 33.5625,15.8187055 33.985418,16.0868297 L33.985418,16.0868297 Z" id="路径" fill="#848899" fill-rule="nonzero"></path>
    <path d="M50.7166384,28.9206984 L49.1895403,26.1912221 C48.9503022,25.7636827 48.4139941,25.6134037 47.9918559,25.8554507 C47.5693661,26.0974089 47.4208311,26.6399251 47.6599812,27.0671977 L49.1863762,29.795518 C49.262841,29.9326365 49.2429777,30.0648643 49.2243449,30.1314672 C49.2064152,30.1955804 49.1570208,30.3139362 49.0278217,30.3861413 L46.6742888,31.7051288 C46.4651972,31.821973 46.1922971,31.7481673 46.0783031,31.5447126 L45.4803838,30.4746192 C45.4779228,30.4698174 45.4751103,30.4653712 45.4725615,30.4606583 L39.2912199,19.3992323 C39.214843,19.2630919 39.234179,19.1325537 39.2524602,19.0668399 C39.2701262,19.0032603 39.3191691,18.8857937 39.4483682,18.8134997 L41.8047135,17.4942454 C42.0164418,17.3756228 42.2826623,17.44765 42.3984141,17.6551952 L43.7760104,20.1177261 C44.0151606,20.5451766 44.5515565,20.6953667 44.9737827,20.4535864 C45.3962725,20.2117172 45.5448075,19.6691121 45.3057453,19.2417505 L43.9287642,16.7802866 C43.3414796,15.7269106 42.0071255,15.3490789 40.954021,15.9380127 L38.5977636,17.257267 C38.0879106,17.5423525 37.7195613,18.0135529 37.5606552,18.5843464 C37.410714,19.1225054 37.4643272,19.6843178 37.7098055,20.1773931 L36.411838,20.5579814 C35.8589186,20.7198204 35.5233525,20.8075869 35.3371125,20.8075869 C35.3363215,20.8075869 35.3356183,20.8075869 35.3349152,20.8075869 C35.2066829,20.8071423 35.0668491,20.7576124 34.6677381,20.6046657 C34.4866836,20.5353062 34.2612444,20.4488735 33.9841255,20.3510588 L31.6844696,19.5376846 C30.4126056,19.0882703 29.8389441,19.1124572 29.0078511,19.1891973 L25.0865269,19.5442649 C23.2989212,19.7045032 22.1592446,20.1124797 21.5301241,20.820036 L19.2954193,20.1649439 C19.5358878,19.6740028 19.5874796,19.1176147 19.4389445,18.5843464 C19.2800385,18.0139086 18.9119529,17.5427971 18.4026272,17.2577116 L16.0476881,15.9378348 C14.9937048,15.3483675 13.6585596,15.7263771 13.0711871,16.7794863 L6.28568601,28.9194535 C5.99520778,29.4368935 5.92331332,30.0387211 6.08344988,30.6141386 C6.24253176,31.1855546 6.61079311,31.6571996 7.11967933,31.9419294 L9.47461842,33.2616283 C9.81132707,33.4499662 10.1771275,33.5394222 10.5380939,33.5394222 C11.3049389,33.5394222 12.0504264,33.135803 12.4511194,32.4200657 L12.6999375,31.9747418 C13.3789798,32.2771673 13.9491257,32.7165334 14.3376898,33.23673 C13.9581785,33.685433 13.7191162,34.2391534 13.6520557,34.8414255 C13.563462,35.6379044 13.7858251,36.4193554 14.2781879,37.0422575 C14.766332,37.6598243 15.4643586,38.0494828 16.2449145,38.1412508 C16.1622974,38.9309715 16.3855393,39.7047752 16.8741229,40.3207414 C17.3791419,40.9595607 18.0929009,41.3322349 18.8395311,41.4201792 C18.7572655,42.208744 18.9797165,42.9818363 19.4668058,43.5981581 C19.9546862,44.2170588 20.6528887,44.6075175 21.4342355,44.6992855 C21.3515306,45.4896287 21.5747725,46.263877 22.063356,46.8799321 C22.6457187,47.6165661 23.505464,48 24.373383,48 C25.0213121,48 25.6738115,47.7862303 26.218557,47.3460639 L28.0588091,45.8562562 C28.2049711,45.7382561 28.3377737,45.6078068 28.4572169,45.4673092 L29.5083878,46.3168748 C30.0519907,46.7557963 30.702996,46.9690325 31.3500461,46.9689435 C32.2184046,46.9688546 33.0795561,46.5848872 33.6627098,45.8475418 C33.9700631,45.4587726 34.1646527,45.0150493 34.2525432,44.5570095 C34.5598965,44.6646057 34.8843883,44.7201823 35.2152083,44.7200934 C35.3261262,44.7200934 35.4377472,44.7138688 35.5497197,44.7013307 C36.3372189,44.6128528 37.0413979,44.2210603 37.5306845,43.6002034 C38.020147,42.983259 38.2433889,42.2095443 38.1608597,41.4199125 C38.9069625,41.3317903 39.6210731,40.959205 40.1275863,40.3206525 C40.632078,39.6824556 40.8345778,38.8967364 40.7553005,38.1410729 C41.5354169,38.0491271 42.233092,37.6595576 42.7200935,37.0434135 C43.2128079,36.4222009 43.4361377,35.6419059 43.3488624,34.8460495 C43.2825929,34.24191 43.0433549,33.6863222 42.6631404,33.2363743 C43.0505619,32.7163555 43.6195653,32.2764559 44.299047,31.9742083 L44.5483925,32.4204214 C44.9488218,33.1358919 45.6939578,33.5393333 46.4609785,33.5393333 C46.8221207,33.5392444 47.1882727,33.4497883 47.5253329,33.2612726 L49.8789536,31.9421962 C50.3876641,31.6576442 50.7557497,31.1867106 50.9154468,30.6162727 C51.0764622,30.0413887 51.0060619,29.4395612 50.7166384,28.9206984 Z M10.9212967,31.544268 C10.807039,31.7484341 10.5339631,31.8220619 10.3257504,31.7054845 L7.9708992,30.3858745 C7.84231534,30.3138473 7.79327242,30.195936 7.77534275,30.1320008 C7.75697362,30.0657535 7.73737403,29.9342371 7.81489349,29.7964072 L14.6014493,17.6540392 C14.6791445,17.5146976 14.8255702,17.4366237 14.9776208,17.4366237 C15.0516246,17.4366237 15.1268589,17.4550306 15.1962925,17.4938897 L17.5505284,18.8133219 C17.5507921,18.8134997 17.5510558,18.8136776 17.5513195,18.8137665 C17.680167,18.8858826 17.729122,19.0033493 17.7468759,19.0669289 C17.7651571,19.1326426 17.784493,19.2631808 17.7072373,19.4008329 L10.9212967,31.544268 Z M17.3350208,36.1202201 C17.0871695,36.321096 16.7741913,36.4118859 16.4543576,36.3758723 C16.1343482,36.3399476 15.8491434,36.1821991 15.6510381,35.9316155 C15.4524934,35.6804094 15.3630208,35.3638453 15.3989681,35.0403452 C15.4347395,34.718179 15.5907452,34.4310482 15.839827,34.2305279 L19.130273,31.5694331 C19.6467178,31.1522976 20.4026643,31.2381078 20.8153983,31.7596383 C21.0138551,32.0106665 21.1034156,32.3266971 21.0675562,32.649219 C21.0318727,32.9706739 20.8757791,33.2575379 20.6281035,33.4569021 C20.6226543,33.4612593 20.6179961,33.4661501 20.6127227,33.4706851 L17.3358119,36.1195976 C17.3355482,36.1197755 17.3352845,36.1200422 17.3350208,36.1202201 L17.3350208,36.1202201 Z M18.2459184,39.2088544 C18.0475494,38.9587154 17.9579011,38.6434851 17.993321,38.3212299 C18.0287409,37.998708 18.1849223,37.7102434 18.4329494,37.5090118 L18.4332131,37.5088339 C18.4333889,37.508745 18.4335647,37.5085672 18.4337405,37.5084782 C18.4338283,37.5084782 18.4338283,37.5083893 18.4339162,37.5083004 L23.1735014,33.6771632 C23.6898583,33.2599388 24.4459806,33.3451266 24.8586267,33.8673684 C25.0568199,34.118041 25.1463803,34.4337159 25.1109604,34.7561489 C25.0754527,35.0789376 24.9188317,35.3674022 24.6701894,35.568367 L19.9318347,39.3980815 C19.4148625,39.8154837 18.6590039,39.7312741 18.2459184,39.2088544 L18.2459184,39.2088544 Z M21.6435908,42.9338181 C21.3236693,42.8978934 21.0387281,42.739967 20.8403592,42.4883164 C20.642166,42.2376438 20.5526056,41.9219689 20.5880254,41.5995359 C20.6235332,41.277014 20.7798905,40.9888162 21.0281813,40.7878513 C21.028357,40.7876735 21.0286207,40.7874956 21.0287965,40.7873178 L24.3086956,38.13636 C24.3125628,38.1333367 24.3167815,38.1307579 24.3206487,38.1276456 C24.8356873,37.7105102 25.5915459,37.7954312 26.0046314,38.3163392 C26.2031762,38.5674563 26.2927366,38.8840205 26.2567894,39.2075205 C26.2209301,39.5296868 26.0649244,39.8168175 25.8159305,40.0173378 L22.5255724,42.6783438 C22.27693,42.8792197 21.9636003,42.969565 21.6435908,42.9338181 L21.6435908,42.9338181 Z M27.4020031,43.655691 C27.3664074,43.9782129 27.210226,44.2660551 26.9614957,44.4670199 L25.1211557,45.9570944 C24.6040957,46.3745855 23.8482371,46.2905537 23.4353273,45.7680451 C23.2369584,45.5180839 23.1472221,45.2025869 23.182642,44.8797093 C23.2180619,44.5568317 23.3740676,44.2688117 23.6216553,44.068736 C23.6219189,44.0685582 23.6222705,44.0682914 23.6225342,44.0681136 L25.4624347,42.5800844 C25.4634015,42.5792841 25.4644562,42.5786616 25.465423,42.5779502 C25.9819557,42.1609037 26.7379022,42.2463582 27.1506362,42.7681555 C27.348302,43.0183834 27.4376867,43.3334358 27.4020031,43.655691 L27.4020031,43.655691 Z M41.348298,35.9315265 C41.1501927,36.1821102 40.8649,36.3399476 40.5449785,36.3758723 C40.2253206,36.4122416 39.9121666,36.321185 39.6643153,36.1202201 C39.6642274,36.1201312 39.6640516,36.1200422 39.6638758,36.1199533 C39.6637879,36.1198644 39.6636121,36.1197755 39.6635242,36.1196866 L37.3117492,34.2186123 C36.9324137,33.9120075 36.3794064,33.974609 36.0765356,34.3582207 C35.7735769,34.7418323 35.8353639,35.3014217 36.2145237,35.6079375 L38.5655077,37.5083893 C39.0812494,37.9262362 39.1662396,38.6895469 38.7557908,39.2087655 C38.3416505,39.7309184 37.585704,39.8158394 37.0696108,39.3976369 L34.5185879,37.3380138 C34.1392523,37.0317647 33.5862451,37.0946329 33.2834622,37.4784224 C32.9807672,37.862212 33.0428179,38.4217124 33.4222413,38.7280504 L35.9720337,40.7866953 C36.2205003,40.9880159 36.3768576,41.2766583 36.4123653,41.5995359 C36.4477852,41.9217911 36.3581369,42.2371103 36.158098,42.4892056 C35.9604322,42.739967 35.6754911,42.8978045 35.3556574,42.9338181 C35.0354722,42.969476 34.7221424,42.8790418 34.4744669,42.6790551 L33.2051517,41.6520002 C33.2029544,41.6502218 33.2010208,41.6483544 33.1988236,41.6465759 L32.1263832,40.7791369 L31.9259049,40.6169422 C31.5466572,40.3101596 30.99365,40.3724943 30.6906034,40.7559281 C30.6527226,40.8039463 30.6204667,40.8546321 30.5939238,40.9072742 C30.4666583,41.1589249 30.4687677,41.4540587 30.5882109,41.70153 C30.6434941,41.8161511 30.7231229,41.9208129 30.8280642,42.0057339 L32.1043227,43.038391 C32.6166366,43.4569492 32.7003963,44.2176812 32.2902112,44.7365441 C31.8773893,45.2586081 31.1213549,45.3438848 30.6051738,44.9272828 L29.1571772,43.7568848 C29.2174701,42.9957971 28.9945797,42.2535609 28.5231348,41.6571577 C28.2301078,41.2866176 27.8666804,41.0059782 27.4675695,40.8177293 C27.7600692,40.4071741 27.9457819,39.9248584 28.0034381,39.4062623 C28.0920317,38.6098724 27.8696687,37.8284214 27.376427,37.2044522 C27.083312,36.8348903 26.7203241,36.5548733 26.3220042,36.367069 C26.6150312,35.9552688 26.8007439,35.471975 26.8578728,34.9526676 C26.9453239,34.1580561 26.722785,33.3781168 26.2313011,32.7562817 C25.3856184,31.686544 23.9554635,31.3613544 22.765162,31.872481 C22.6698886,31.4298247 22.4752111,31.0122446 22.187809,30.6486405 C21.1702124,29.3621097 19.3067572,29.1516301 18.0331354,30.1797521 L15.6797783,32.0829605 C15.1476011,31.3958563 14.4241741,30.8260409 13.5688234,30.4196651 L18.4097463,21.7567457 L20.9872243,22.5123202 C20.9990016,22.6518396 21.0213258,22.7985618 21.0586793,22.9539983 C21.6826142,25.5494684 24.0445845,26.7588145 27.2229701,26.1108362 C29.9009948,25.5656523 31.0034937,26.3777815 33.199263,27.9955487 C33.4270753,28.1633454 33.6637645,28.3377225 33.911528,28.517257 C35.4906573,29.6634681 37.1781556,31.010733 38.3095705,31.9238782 L41.1624974,34.2307058 C41.4103487,34.4307814 41.5663544,34.7188903 41.6017743,35.0420347 C41.6371942,35.3649123 41.5475458,35.6804094 41.348298,35.9315265 L41.348298,35.9315265 Z M41.320964,32.082427 L39.4064444,30.5343751 C38.259385,29.6086029 36.5480683,28.2424865 34.9357164,27.0720884 C34.6913807,26.8950437 34.4583829,26.7233344 34.2340862,26.5581164 C31.9571939,24.8805933 30.3116194,23.6685796 26.876154,24.3675994 C25.8246316,24.5819915 23.3193997,24.8326641 22.7668319,22.5341952 C22.6889609,22.209717 22.7680624,22.0982081 22.8017244,22.0506346 C22.9192341,21.884883 23.3920852,21.4814416 25.2420931,21.3156901 L29.1675482,20.9602668 C29.8072156,20.9012223 30.1281039,20.8715222 31.104392,21.2165415 L33.4043117,22.0300046 C33.6599852,22.1203498 33.8644186,22.1986016 34.0448579,22.2677833 C35.1522787,22.6922105 35.4457452,22.6921215 36.9005973,22.2660938 L38.5961815,21.769017 L43.4306006,30.4201986 C42.5749862,30.8263077 41.8522623,31.3956785 41.320964,32.082427 Z" id="形状" fill="#848899" fill-rule="nonzero"></path>
    <path d="M46.5,23.8865248 C46.9659188,23.8865248 47.34375,23.5045135 47.34375,23.0348232 C47.34375,22.5651329 46.9659188,22.1843972 46.5,22.1843972 C46.0340812,22.1843972 45.65625,22.5652179 45.65625,23.0348232 L45.65625,23.0372044 C45.65625,23.5068947 46.0340812,23.8865248 46.5,23.8865248 Z" id="路径" fill="#848899" fill-rule="nonzero"></path>
  </g>
</svg>
