<svg width="16" height="16" viewBox="0 0 16 16" fill="none" xmlns="http://www.w3.org/2000/svg">
<rect width="16" height="16" rx="2" fill="#7DBC73"/>
<path fill-rule="evenodd" clip-rule="evenodd" d="M3.25955 8.24054C2.91348 8.59156 2.91348 9.15851 3.25955 9.50953L6.45927 12.736L6.45999 12.7368C6.80872 13.088 7.37389 13.0877 7.72225 12.736L11.7329 8.76451C11.9038 8.59535 12 8.36393 12 8.12239V4.89991C12 4.4029 11.6003 4 11.1074 4H7.90249C7.66837 4.00001 7.44363 4.09276 7.27669 4.25827L3.25955 8.24054ZM10.8099 6.09995C10.8099 6.59707 10.4102 6.99997 9.91729 6.99997C9.42427 6.99997 9.0247 6.59707 9.0247 6.09995C9.0247 5.60282 9.4244 5.19992 9.91729 5.19992C10.4103 5.19992 10.8099 5.60294 10.8099 6.09995Z" fill="white"/>
</svg>
