<?xml version="1.0" encoding="UTF-8"?>
<svg width="24" height="24" viewBox="0 0 24 24" xmlns="http://www.w3.org/2000/svg">
  <path d="M18.75 3A2.25 2.25 0 0 1 21 5.25l.001 7.553a6 6 0 1 1-8.198 8.198L5.25 21A2.25 2.25 0 0 1 3 18.75V5.25A2.25 2.25 0 0 1 5.25 3h13.5zm2.47 12.22l-3.97 3.97-2.47-2.47-1.06 1.06 3.53 3.53 5.03-5.03-1.06-1.06zm-9.316-2.065L5.559 19.5h6.63a6.01 6.01 0 0 1 .808-4.814l-1.093-1.531zM19.5 4.5h-15v13.938l7.596-7.594 1.912 2.677a6.01 6.01 0 0 1 5.493-1.331L19.5 4.5zM7.5 6a1.5 1.5 0 1 1 0 3 1.5 1.5 0 0 1 0-3z" fill="#3E5270" fill-rule="nonzero"/>
</svg>
