<?xml version="1.0" encoding="UTF-8"?>
<svg width="56px" height="56px" viewBox="0 0 56 56" version="1.1" xmlns="http://www.w3.org/2000/svg" xmlns:xlink="http://www.w3.org/1999/xlink">
  <g id="icon/data/企业内部任务" stroke="none" stroke-width="1" fill="none" fill-rule="evenodd">
    <path d="M47.21875,14.5625 C47.6502686,14.5625 48,14.2127686 48,13.78125 L48,8.78125 C48,8.34973141 47.6502686,8 47.21875,8 L42.21875,8 C41.7872314,8 41.4375,8.34973141 41.4375,8.78125 L41.4375,10.5 L31.28125,10.5 L31.28125,8.78125 C31.28125,8.34973141 30.9315186,8 30.5,8 L25.5,8 C25.0684814,8 24.71875,8.34973141 24.71875,8.78125 L24.71875,10.5 L20.8125,10.5 C20.3809814,10.5 20.03125,10.8497314 20.03125,11.28125 C20.03125,11.7127686 20.3809814,12.0625 20.8125,12.0625 L24.71875,12.0625 L24.71875,13.78125 C24.71875,14.2127686 25.0684814,14.5625 25.5,14.5625 L30.5,14.5625 C30.9315186,14.5625 31.28125,14.2127686 31.28125,13.78125 L31.28125,12.0625 L41.4375,12.0625 L41.4375,13.78125 C41.4375,14.2127686 41.7872314,14.5625 42.21875,14.5625 L43.9375,14.5625 L43.9375,24.71875 L42.21875,24.71875 C41.7872314,24.71875 41.4375,25.0684814 41.4375,25.5 L41.4375,30.5 C41.4375,30.9315186 41.7872314,31.28125 42.21875,31.28125 L43.9375,31.28125 L43.9375,41.4375 L42.21875,41.4375 C41.7872314,41.4375 41.4375,41.7872314 41.4375,42.21875 L41.4375,43.9375 L31.28125,43.9375 L31.28125,42.21875 C31.28125,41.7872314 30.9315186,41.4375 30.5,41.4375 L25.5,41.4375 C25.0684814,41.4375 24.71875,41.7872314 24.71875,42.21875 L24.71875,43.9375 L14.5625,43.9375 L14.5625,42.21875 C14.5625,41.7872314 14.2127686,41.4375 13.78125,41.4375 L12.0625,41.4375 L12.0625,31.28125 L13.78125,31.28125 C14.2127686,31.28125 14.5625,30.9315186 14.5625,30.5 L14.5625,25.5 C14.5625,25.0684814 14.2127686,24.71875 13.78125,24.71875 L12.0625,24.71875 L12.0625,14.5625 L13.78125,14.5625 C14.2127686,14.5625 14.5625,14.2127686 14.5625,13.78125 L14.5625,8.78125 C14.5625,8.34973141 14.2127686,8 13.78125,8 L8.78125,8 C8.34973141,8 8,8.34973141 8,8.78125 L8,13.78125 C8,14.2127686 8.34973141,14.5625 8.78125,14.5625 L10.5,14.5625 L10.5,24.71875 L8.78125,24.71875 C8.34973141,24.71875 8,25.0684814 8,25.5 L8,30.5 C8,30.9315186 8.34973141,31.28125 8.78125,31.28125 L10.5,31.28125 L10.5,41.4375 L8.78125,41.4375 C8.34973141,41.4375 8,41.7872314 8,42.21875 L8,47.21875 C8,47.6502686 8.34973141,48 8.78125,48 L13.78125,48 C14.2127686,48 14.5625,47.6502686 14.5625,47.21875 L14.5625,45.5 L24.71875,45.5 L24.71875,47.21875 C24.71875,47.6502686 25.0684814,48 25.5,48 L30.5,48 C30.9315186,48 31.28125,47.6502686 31.28125,47.21875 L31.28125,45.5 L41.4375,45.5 L41.4375,47.21875 C41.4375,47.6502686 41.7872314,48 42.21875,48 L47.21875,48 C47.6502686,48 48,47.6502686 48,47.21875 L48,42.21875 C48,41.7872314 47.6502686,41.4375 47.21875,41.4375 L45.5,41.4375 L45.5,31.28125 L47.21875,31.28125 C47.6502686,31.28125 48,30.9315186 48,30.5 L48,25.5 C48,25.0684814 47.6502686,24.71875 47.21875,24.71875 L45.5,24.71875 L45.5,14.5625 L47.21875,14.5625 Z M29.71875,13 L26.28125,13 L26.28125,9.5625 L29.71875,9.5625 L29.71875,13 Z M9.5625,9.5625 L13,9.5625 L13,13 L9.5625,13 L9.5625,9.5625 Z M9.5625,26.28125 L13,26.28125 L13,29.71875 L9.5625,29.71875 L9.5625,26.28125 Z M13,46.4375 L9.5625,46.4375 L9.5625,43 L13,43 L13,46.4375 Z M29.71875,46.4375 L26.28125,46.4375 L26.28125,43 L29.71875,43 L29.71875,46.4375 Z M46.4375,46.4375 L43,46.4375 L43,43 L46.4375,43 L46.4375,46.4375 Z M46.4375,29.71875 L43,29.71875 L43,26.28125 L46.4375,26.28125 L46.4375,29.71875 Z M43,9.5625 L46.4375,9.5625 L46.4375,13 L43,13 L43,9.5625 Z" id="形状" fill="#848899" fill-rule="nonzero"></path>
    <path d="M17,12 C17.2628906,12 17.5210938,11.8929688 17.7070312,11.7070312 C17.8929688,11.5210938 18,11.2628906 18,11 C18,10.7371094 17.8929688,10.4789062 17.7070312,10.2929688 C17.5210938,10.1070312 17.2628906,10 17,10 C16.7371094,10 16.4789062,10.1070312 16.2929688,10.2929688 C16.1070312,10.4789062 16,10.7371094 16,11 C16,11.2628906 16.1070312,11.5210938 16.2929688,11.7070312 C16.4789062,11.8929688 16.7371094,12 17,12 Z" id="路径" fill="#848899" fill-rule="nonzero"></path>
    <path d="M28.5,39 C34.8411719,39 40,33.8411719 40,27.5 C40,21.1588281 34.8411719,16 28.5,16 C22.1588281,16 17,21.1588281 17,27.5 C17,33.8411719 22.1588281,39 28.5,39 Z M18.5626823,28.2666667 L22.1285807,28.2666667 L22.1285807,32.4195443 C21.4754167,32.5486198 20.8480078,32.7801172 20.2649219,33.1074479 C19.3083854,31.7073828 18.6989453,30.0521614 18.5626823,28.2666667 Z M20.2649219,21.8925521 C20.8483073,22.2198828 21.4754167,22.4513802 22.1285807,22.5804557 L22.1285807,26.7333333 L18.5626823,26.7333333 C18.6989453,24.9478386 19.3083854,23.2926172 20.2649219,21.8925521 Z M36.7350781,21.8925521 C37.6916146,23.2926172 38.3010547,24.9478386 38.4373177,26.7333333 L34.8714193,26.7333333 L34.8714193,22.5804557 C35.5245833,22.4513802 36.1519922,22.2198828 36.7350781,21.8925521 L36.7350781,21.8925521 Z M36.7350781,33.1074479 C36.1516927,32.7801172 35.5245833,32.5486198 34.8714193,32.4195443 L34.8714193,28.2666667 L38.4373177,28.2666667 C38.3010547,30.0521614 37.6916146,31.7073828 36.7350781,33.1074479 L36.7350781,33.1074479 Z M27.7333333,37.4025781 C25.8271485,37.0977083 24.2887239,35.6760807 23.8140495,33.831289 L27.7333333,33.831289 L27.7333333,37.4025781 Z M29.2666667,33.831289 L33.1859505,33.831289 C32.7112761,35.6760807 31.1728515,37.0977083 29.2666667,37.4025781 L29.2666667,33.831289 Z M29.2666667,32.2979557 L29.2666667,28.2666667 L33.338086,28.2666667 L33.338086,32.2979557 L29.2666667,32.2979557 Z M29.2666667,26.7333333 L29.2666667,22.7020443 L33.338086,22.7020443 L33.338086,26.7333333 L29.2666667,26.7333333 Z M29.2666667,21.168711 L29.2666667,17.5974219 C31.1728515,17.9022917 32.7112761,19.3239193 33.1859505,21.168711 L29.2666667,21.168711 Z M27.7333333,21.168711 L23.8140495,21.168711 C24.2887239,19.3239193 25.8271485,17.9022917 27.7333333,17.5974219 L27.7333333,21.168711 Z M27.7333333,22.7020443 L27.7333333,26.7333333 L23.661914,26.7333333 L23.661914,22.7020443 L27.7333333,22.7020443 Z M27.7333333,28.2666667 L27.7333333,32.2979557 L23.661914,32.2979557 L23.661914,28.2666667 L27.7333333,28.2666667 Z M21.2436198,34.3245313 C21.5709505,34.1634114 21.9147526,34.0403255 22.2696354,33.9576693 C22.4091927,34.6111328 22.6496745,35.226862 22.973112,35.7898828 C22.3421094,35.3676172 21.7620182,34.8755729 21.2436198,34.3245313 Z M34.026888,35.7898828 C34.3503255,35.226862 34.5908073,34.6111328 34.7303646,33.9576693 C35.0852474,34.0403255 35.42875,34.1634114 35.7563802,34.3245313 C35.2379818,34.8755729 34.6575911,35.3676172 34.026888,35.7898828 Z M35.7563802,20.6754688 C35.4290495,20.8365886 35.0852474,20.9596745 34.7303646,21.0423307 C34.5908073,20.3888672 34.3503255,19.773138 34.026888,19.2101172 C34.6578906,19.6323828 35.2379818,20.1244271 35.7563802,20.6754688 Z M22.973112,19.2101172 C22.6496745,19.773138 22.4091927,20.3888672 22.2696354,21.0423307 C21.9147526,20.9596745 21.57125,20.8365886 21.2436198,20.6754688 C21.7620182,20.1244271 22.3424089,19.6323828 22.973112,19.2101172 Z" id="形状" fill="#848899" fill-rule="nonzero"></path>
  </g>
</svg>
