<?xml version="1.0" encoding="UTF-8"?>
<svg width="56px" height="56px" viewBox="0 0 56 56" version="1.1" xmlns="http://www.w3.org/2000/svg" xmlns:xlink="http://www.w3.org/1999/xlink">
  <g id="icon/data/众包任务" stroke="none" stroke-width="1" fill="none" fill-rule="evenodd">
    <path d="M42.3332477,32.4202354 C39.6906696,32.4202354 37.3535724,33.7619605 35.9577595,35.8041278 C35.9302326,35.7835067 35.901363,35.7635616 35.8708149,35.7456449 L33.0523334,34.1071109 C33.2748981,33.5165354 33.3977619,32.8769426 33.3977619,32.2089535 C33.3977619,29.5447722 31.4594684,27.3285087 28.9283405,26.9133818 L28.9283405,23.6363137 C28.9283405,23.5707318 28.9202839,23.5071782 28.9068561,23.4456528 C32.7794147,23.023765 35.8046833,19.7118776 35.8046833,15.7015765 C35.8046833,13.042466 34.4780231,10.5932852 32.2560688,9.15048284 C31.8572651,8.8915356 31.3255268,9.00714914 31.06805,9.40875385 C30.8109089,9.81069676 30.925716,10.3461698 31.3248554,10.605117 C33.0536762,11.727785 34.0859333,13.6330413 34.0859333,15.7015765 C34.0859333,16.834724 33.7747455,17.8955287 33.2349506,18.8035341 C32.9046283,17.8789641 32.1083637,17.1656762 31.1039692,16.9767055 L31.0683857,16.9702825 C31.1311603,16.7231672 31.1647297,16.4648961 31.1647297,16.1985118 L31.1647297,15.2979434 C31.1647297,13.5789532 29.7759662,12.1804355 28.0689655,12.1804355 C26.3623005,12.1804355 24.9735371,13.5789532 24.9735371,15.2979434 L24.9735371,16.1985118 C24.9735371,16.4648961 25.0067707,16.7235052 25.0695453,16.9702825 L25.0339619,16.9767055 C24.0295673,17.1656762 23.2333027,17.8789641 22.9033161,18.8035341 C22.3635212,17.8955287 22.0523334,16.834724 22.0523334,15.7015765 C22.0523334,13.6249281 23.090633,11.7156151 24.830196,10.5942993 C25.2296711,10.3367044 25.3464923,9.80156936 25.0903584,9.39895039 C24.83456,8.9963315 24.3031575,8.87902772 23.9033466,9.13662268 C21.6679645,10.5777349 20.3335834,13.0319864 20.3335834,15.7015765 C20.3335834,19.7118776 23.3585163,23.023765 27.2314106,23.4456528 C27.2176472,23.5071782 27.2099262,23.5707318 27.2099262,23.6363137 L27.2099262,26.9133818 C24.6787983,27.3285087 22.7401692,29.5447722 22.7401692,32.2089535 C22.7401692,32.8769426 22.8630329,33.5165354 23.0855976,34.1071109 L20.2671162,35.7456449 C20.2365681,35.7635616 20.2080341,35.7831685 20.1805072,35.8041278 C18.7846943,33.7619605 16.4472614,32.4202354 13.8046833,32.4202354 C9.53902775,32.4202354 6.06896552,35.9146704 6.06896552,40.2099487 C6.06896552,44.505227 9.53902775,48 13.8046833,48 C18.0700032,48 21.5400654,44.505227 21.5400654,40.2099487 C21.5400654,39.1853156 21.3423419,38.2063194 20.9834858,37.3091316 C21.0321614,37.291891 21.0801654,37.2716079 21.1264912,37.2445638 L23.9463154,35.6050156 C24.9245258,36.8067875 26.4092975,37.5751778 28.0689655,37.5751778 C29.7286335,37.5751778 31.2134052,36.8067875 32.1916156,35.6050156 L35.0114399,37.2445638 C35.0577656,37.2716079 35.1057697,37.291891 35.1544453,37.3091316 C34.7955891,38.2063194 34.5978656,39.1853156 34.5978656,40.2099487 C34.5978656,44.505227 38.0679279,48 42.3332477,48 C46.5989033,48 50.0689655,44.505227 50.0689655,40.2099487 C50.0689655,35.9146704 46.5989033,32.4202354 42.3332477,32.4202354 L42.3332477,32.4202354 Z M10.1916156,45.0515177 L10.1916156,44.2692672 C10.1916156,43.739203 10.5672565,43.283848 11.08456,43.1868273 L11.7744099,43.0573538 C12.3182331,43.534344 13.0282246,43.8243919 13.8043476,43.8243919 C14.5808063,43.8243919 15.2907978,43.534344 15.8346211,43.0573538 L16.5244708,43.1868273 C17.0417744,43.283848 17.4174153,43.739203 17.4174153,44.2692672 L17.4174153,45.0515177 C16.4106709,45.8155133 15.159206,46.269178 13.8043476,46.269178 C12.4494892,46.269178 11.19836,45.8155133 10.1916156,45.0515177 Z M15.1813617,40.7068839 C15.1813617,41.4715557 14.563686,42.0935699 13.8046833,42.0935699 C13.045345,42.0935699 12.4276692,41.4715557 12.4276692,40.7068839 L12.4276692,39.8063156 C12.4276692,39.0416438 13.045345,38.4196297 13.8046833,38.4196297 C14.563686,38.4196297 15.1813617,39.0416438 15.1813617,39.8063156 L15.1813617,40.7068839 Z M18.9706684,43.3119063 C18.6403461,42.3873363 17.8440815,41.6737103 16.8396869,41.4854158 L16.8041035,41.4786547 C16.8665424,41.2318774 16.9001117,40.9732683 16.9001117,40.7068839 L16.9001117,39.8063156 C16.9001117,38.0873254 15.511684,36.6891457 13.8046833,36.6891457 C12.0976826,36.6891457 10.7089192,38.0873254 10.7089192,39.8063156 L10.7089192,40.7068839 C10.7089192,40.9732683 10.7424884,41.2318774 10.8052631,41.4786547 L10.7696797,41.4854158 C9.76528512,41.6740484 8.96902047,42.3873363 8.6386982,43.3119063 C8.09890328,42.4039009 7.78771552,41.3430962 7.78771552,40.2099487 C7.78771552,36.8689889 10.4866901,34.1507194 13.8046833,34.1507194 C17.1223408,34.1507194 19.8213154,36.8689889 19.8213154,40.2099487 C19.8213154,41.3430962 19.5101276,42.4039009 18.9706684,43.3119063 L18.9706684,43.3119063 Z M26.6922871,15.2979434 C26.6922871,14.5332716 27.3096271,13.9112575 28.0689655,13.9112575 C28.8279682,13.9112575 29.445644,14.5332716 29.445644,15.2979434 L29.445644,16.1985118 C29.445644,16.9631835 28.8283039,17.5851977 28.0689655,17.5851977 C27.3096271,17.5851977 26.6922871,16.9631835 26.6922871,16.1985118 L26.6922871,15.2979434 Z M25.3491779,18.6784552 L26.0390278,18.5489816 C26.582851,19.0259718 27.2928425,19.3160197 28.0689655,19.3160197 C28.8450886,19.3160197 29.55508,19.0259718 30.0989033,18.5489816 L30.7887532,18.6784552 C31.3063923,18.7754759 31.6816974,19.2308308 31.6816974,19.760895 L31.6816974,20.5431455 C30.6749531,21.3071411 29.4238239,21.7608058 28.0689655,21.7608058 C26.7141071,21.7608058 25.4626423,21.3071411 24.4558979,20.5431455 L24.4558979,19.760895 C24.4558979,19.2308308 24.8315388,18.7754759 25.3491779,18.6784552 L25.3491779,18.6784552 Z M28.0689655,35.8443558 C26.0783039,35.8443558 24.4589192,34.2135969 24.4589192,32.2089535 C24.4589192,30.2043101 26.0783039,28.5732131 28.0689655,28.5732131 C30.0596271,28.5732131 31.6790119,30.2043101 31.6790119,32.2089535 C31.6790119,34.2135969 30.0596271,35.8443558 28.0689655,35.8443558 Z M38.7205158,45.0515177 L38.7205158,44.2692672 C38.7205158,43.739203 39.0961567,43.283848 39.6134602,43.1868273 L40.30331,43.0573538 C40.8474689,43.534344 41.5571247,43.8243919 42.3335834,43.8243919 C43.1097065,43.8243919 43.8196979,43.534344 44.3635212,43.0573538 L45.0533711,43.1868273 C45.5706745,43.283848 45.9463154,43.739203 45.9463154,44.2692672 L45.9463154,45.0515177 C44.939571,45.8155133 43.6881061,46.269178 42.3332477,46.269178 C40.978725,46.269178 39.7272602,45.8155133 38.7205158,45.0515177 L38.7205158,45.0515177 Z M43.7102619,40.7068839 C43.7102619,41.4715557 43.0925861,42.0935699 42.3332477,42.0935699 C41.5742451,42.0935699 40.9565693,41.4715557 40.9565693,40.7068839 L40.9565693,39.8063156 C40.9565693,39.0416438 41.5742451,38.4196297 42.3332477,38.4196297 C43.0925861,38.4196297 43.7102619,39.0416438 43.7102619,39.8063156 L43.7102619,40.7068839 Z M47.4992328,43.3119063 C47.1689106,42.3873363 46.3726459,41.6740484 45.3685871,41.4854158 L45.3330036,41.4786547 C45.3954426,41.2318774 45.4290119,40.9732683 45.4290119,40.7068839 L45.4290119,39.8063156 C45.4290119,38.0873254 44.0402485,36.6891457 42.3335834,36.6891457 C40.6265827,36.6891457 39.2378193,38.0873254 39.2378193,39.8063156 L39.2378193,40.7068839 C39.2378193,40.9732683 39.2713886,41.2318774 39.3341633,41.4786547 L39.2985798,41.4854158 C38.2941852,41.6740484 37.4979206,42.3873363 37.1675983,43.3119063 C36.6278034,42.4039009 36.3166156,41.3430962 36.3166156,40.2099487 C36.3166156,36.8689889 39.0159259,34.1507194 42.3335834,34.1507194 C45.6512409,34.1507194 48.3505512,36.8689889 48.3505512,40.2099487 C48.3502155,41.3430962 48.0390278,42.4039009 47.4992328,43.3119063 L47.4992328,43.3119063 Z" id="形状" fill="#848899" fill-rule="nonzero"></path>
    <path d="M28.0689655,31 C27.8060749,31 27.5478717,31.1058594 27.3619343,31.2921875 C27.1759967,31.4789063 27.0689655,31.7359375 27.0689655,32 C27.0689655,32.2628906 27.1759967,32.5210938 27.3619343,32.7070313 C27.5478717,32.8929688 27.8060749,33 28.0689655,33 C28.3318561,33 28.5900593,32.8929688 28.7759967,32.7070313 C28.9619343,32.5210938 29.0689655,32.2628906 29.0689655,32 C29.0689655,31.7359375 28.9619343,31.4789063 28.7759967,31.2921875 C28.5900593,31.1058594 28.3318561,31 28.0689655,31 Z" id="路径" fill="#848899" fill-rule="nonzero"></path>
    <path d="M28.0689655,10 C28.6213093,10 29.0689655,9.55260585 29.0689655,9.00058561 L29.0689655,8.99824318 C29.0689655,8.44661331 28.6213093,8 28.0689655,8 C27.5166217,8 27.0689655,8.44856526 27.0689655,9.00058561 C27.0689655,9.55221548 27.5166217,10 28.0689655,10 Z" id="路径" fill="#848899" fill-rule="nonzero"></path>
  </g>
</svg>
