<?xml version="1.0" encoding="UTF-8"?>
<svg width="24px" height="24px" viewBox="0 0 24 24" version="1.1" xmlns="http://www.w3.org/2000/svg" xmlns:xlink="http://www.w3.org/1999/xlink">
    <title>save</title>
    <g id="save" stroke="none" stroke-width="1" fill="none" fill-rule="evenodd">
        <path d="M15,3 L20,8 L20,20 C20,20.5522847 19.5522847,21 19,21 L5,21 C4.44771525,21 4,20.5522847 4,20 L4,4 C4,3.44771525 4.44771525,3 5,3 L15,3 Z M14.585,4 L8,4 L8,6 C8,6.55228475 8.44771525,7 9,7 L14,7 L14,8 L8,8 C7.44771525,8 7,7.55228475 7,7 L7,4 L5,4 L5,20 L7,20 L7,16 C7,15.4477153 7.44771525,15 8,15 L16,15 C16.5522847,15 17,15.4477153 17,16 L17,20 L19,20 L19,8.415 L14.585,4 Z" id="Combined-Shape" fill="#C9CBCC" fill-rule="nonzero"></path>
    </g>
</svg>